<svg width="45" height="45" viewBox="0 0 45 45" fill="none" xmlns="http://www.w3.org/2000/svg">
<path d="M22.5 11.25C22.5 17.4632 17.4632 22.5 11.25 22.5H0V11.25C0 5.03679 5.03679 0 11.25 0C17.4632 0 22.5 5.03679 22.5 11.25Z" fill="#FF0004"/>
<path d="M22.5 33.75C22.5 27.5368 27.5368 22.5 33.75 22.5H45V33.75C45 39.9632 39.9632 45 33.75 45C27.5368 45 22.5 39.9632 22.5 33.75Z" fill="#FF0004"/>
<path d="M0 33.75C0 39.9632 5.03679 45 11.25 45H22.5V33.75C22.5 27.5368 17.4632 22.5 11.25 22.5C5.03679 22.5 0 27.5368 0 33.75Z" fill="#FF0004"/>
<path d="M44.5 11.25C44.5 5.03679 39.4632 0 33.25 0H22V11.25C22 17.4632 27.0368 22.5 33.25 22.5C39.4632 22.5 44.5 17.4632 44.5 11.25Z" fill="#FF0004"/>
</svg>
